# xmcd
#
# Track frame offsets: 
#        150
#        15936
#        34744
#        51468
#        69597
#        89420
#        106575
#        127482
#        139470
#        158506
#
# Disc length: 2348 seconds
#
# Revision: 0
# Processed by: cddbd v1.5.2PL0 Copyright (c) Steve Scherf et al.
# Submitted via: ExactAudioCopy v1.0b1
#
DISCID=86092a0a
DTITLE=Firefall - Firefall
DYEAR=1976
DGENRE=West Coast
TTITLE0=It Doesn't Matter
TTITLE1=Love Isn't All
TTITLE2=Livin' Ain't Livin'
TTITLE3=No Way Out
TTITLE4=Dolphin's Lullaby
TTITLE5=Cinderella
TTITLE6=Sad Ol' Love Song
TTITLE7=You Are The Woman
TTITLE8=Mexico
TTITLE9=Do What You Want
EXTD=
EXTT0=
EXTT1=
EXTT2=
EXTT3=
EXTT4=
EXTT5=
EXTT6=
EXTT7=
EXTT8=
EXTT9=
PLAYORDER=
